<mxfile host="app.diagrams.net" agent="Mozilla/5.0 (Macintosh; Intel Mac OS X 10_15_7) AppleWebKit/537.36 (KHTML, like Gecko) Chrome/130.0.0.0 Safari/537.36" version="24.8.4" pages="3">
  <diagram name="Overall" id="imuQKAUCu5dubq_rODLa">
    <mxGraphModel dx="954" dy="1688" grid="1" gridSize="10" guides="1" tooltips="1" connect="1" arrows="1" fold="1" page="1" pageScale="1" pageWidth="827" pageHeight="1169" math="0" shadow="0">
      <root>
        <mxCell id="0" />
        <mxCell id="1" parent="0" />
        <mxCell id="gS8YIqSY_J7xMPx6njZp-2" value="Secret&lt;div&gt;Volume&lt;/div&gt;" style="shape=cylinder3;whiteSpace=wrap;html=1;boundedLbl=1;backgroundOutline=1;size=15;" parent="1" vertex="1">
          <mxGeometry x="80" y="220" width="60" height="80" as="geometry" />
        </mxCell>
        <mxCell id="gS8YIqSY_J7xMPx6njZp-3" style="edgeStyle=orthogonalEdgeStyle;rounded=0;orthogonalLoop=1;jettySize=auto;html=1;entryX=1.028;entryY=0.585;entryDx=0;entryDy=0;entryPerimeter=0;startArrow=classic;startFill=1;endArrow=none;endFill=0;" parent="1" target="gS8YIqSY_J7xMPx6njZp-35" edge="1">
          <mxGeometry relative="1" as="geometry">
            <mxPoint x="320" y="200.0344827586207" as="sourcePoint" />
            <Array as="points">
              <mxPoint x="260" y="200" />
              <mxPoint x="260" y="267" />
            </Array>
          </mxGeometry>
        </mxCell>
        <mxCell id="gS8YIqSY_J7xMPx6njZp-9" style="edgeStyle=orthogonalEdgeStyle;rounded=0;orthogonalLoop=1;jettySize=auto;html=1;exitX=0;exitY=0.5;exitDx=0;exitDy=0;" parent="1" source="gS8YIqSY_J7xMPx6njZp-11" target="gS8YIqSY_J7xMPx6njZp-7" edge="1">
          <mxGeometry relative="1" as="geometry">
            <mxPoint x="579.9999999999998" y="40.0344827586207" as="sourcePoint" />
            <Array as="points">
              <mxPoint x="410" y="40" />
            </Array>
          </mxGeometry>
        </mxCell>
        <mxCell id="gS8YIqSY_J7xMPx6njZp-10" style="edgeStyle=orthogonalEdgeStyle;rounded=0;orthogonalLoop=1;jettySize=auto;html=1;" parent="1" edge="1">
          <mxGeometry relative="1" as="geometry">
            <mxPoint x="459.9999999999998" y="40.0344827586207" as="sourcePoint" />
            <mxPoint x="380.0344827586207" y="170" as="targetPoint" />
          </mxGeometry>
        </mxCell>
        <mxCell id="gS8YIqSY_J7xMPx6njZp-7" value="AlertmanagerConfig" style="rounded=0;whiteSpace=wrap;html=1;" parent="1" vertex="1">
          <mxGeometry x="350" y="-150" width="120" height="60" as="geometry" />
        </mxCell>
        <mxCell id="gS8YIqSY_J7xMPx6njZp-8" value="PrometheusRule" style="rounded=0;whiteSpace=wrap;html=1;" parent="1" vertex="1">
          <mxGeometry x="540" y="-150" width="120" height="60" as="geometry" />
        </mxCell>
        <mxCell id="gS8YIqSY_J7xMPx6njZp-15" style="edgeStyle=orthogonalEdgeStyle;rounded=0;orthogonalLoop=1;jettySize=auto;html=1;" parent="1" source="gS8YIqSY_J7xMPx6njZp-11" target="gS8YIqSY_J7xMPx6njZp-13" edge="1">
          <mxGeometry relative="1" as="geometry" />
        </mxCell>
        <mxCell id="gS8YIqSY_J7xMPx6njZp-11" value="Prometheus&lt;div&gt;Operator&lt;/div&gt;" style="shape=process;whiteSpace=wrap;html=1;backgroundOutline=1;" parent="1" vertex="1">
          <mxGeometry x="450" y="10" width="120" height="60" as="geometry" />
        </mxCell>
        <mxCell id="gS8YIqSY_J7xMPx6njZp-24" style="edgeStyle=orthogonalEdgeStyle;rounded=0;orthogonalLoop=1;jettySize=auto;html=1;" parent="1" source="gS8YIqSY_J7xMPx6njZp-12" target="gS8YIqSY_J7xMPx6njZp-23" edge="1">
          <mxGeometry relative="1" as="geometry">
            <mxPoint x="644" y="270" as="sourcePoint" />
            <Array as="points">
              <mxPoint x="540" y="210" />
            </Array>
          </mxGeometry>
        </mxCell>
        <mxCell id="gS8YIqSY_J7xMPx6njZp-12" value="Alertmanager" style="shape=process;whiteSpace=wrap;html=1;backgroundOutline=1;" parent="1" vertex="1">
          <mxGeometry x="320" y="170" width="120" height="60" as="geometry" />
        </mxCell>
        <mxCell id="gS8YIqSY_J7xMPx6njZp-19" style="edgeStyle=orthogonalEdgeStyle;rounded=0;orthogonalLoop=1;jettySize=auto;html=1;entryX=1;entryY=0.5;entryDx=0;entryDy=0;" parent="1" source="gS8YIqSY_J7xMPx6njZp-13" target="gS8YIqSY_J7xMPx6njZp-12" edge="1">
          <mxGeometry relative="1" as="geometry" />
        </mxCell>
        <mxCell id="gS8YIqSY_J7xMPx6njZp-13" value="Prometheus" style="shape=process;whiteSpace=wrap;html=1;backgroundOutline=1;" parent="1" vertex="1">
          <mxGeometry x="600" y="170" width="120" height="60" as="geometry" />
        </mxCell>
        <mxCell id="gS8YIqSY_J7xMPx6njZp-38" style="edgeStyle=orthogonalEdgeStyle;rounded=0;orthogonalLoop=1;jettySize=auto;html=1;" parent="1" source="gS8YIqSY_J7xMPx6njZp-16" target="gS8YIqSY_J7xMPx6njZp-2" edge="1">
          <mxGeometry relative="1" as="geometry" />
        </mxCell>
        <mxCell id="gS8YIqSY_J7xMPx6njZp-39" style="edgeStyle=orthogonalEdgeStyle;rounded=0;orthogonalLoop=1;jettySize=auto;html=1;" parent="1" source="gS8YIqSY_J7xMPx6njZp-16" target="gS8YIqSY_J7xMPx6njZp-35" edge="1">
          <mxGeometry relative="1" as="geometry" />
        </mxCell>
        <mxCell id="gS8YIqSY_J7xMPx6njZp-16" value="Helm Values" style="rounded=1;whiteSpace=wrap;html=1;" parent="1" vertex="1">
          <mxGeometry x="100" y="40" width="120" height="60" as="geometry" />
        </mxCell>
        <mxCell id="gS8YIqSY_J7xMPx6njZp-18" style="edgeStyle=orthogonalEdgeStyle;rounded=0;orthogonalLoop=1;jettySize=auto;html=1;entryX=0.546;entryY=1.028;entryDx=0;entryDy=0;entryPerimeter=0;" parent="1" source="gS8YIqSY_J7xMPx6njZp-11" target="gS8YIqSY_J7xMPx6njZp-8" edge="1">
          <mxGeometry relative="1" as="geometry">
            <Array as="points">
              <mxPoint x="606" y="40" />
              <mxPoint x="606" y="-40" />
            </Array>
          </mxGeometry>
        </mxCell>
        <mxCell id="gS8YIqSY_J7xMPx6njZp-20" value="&lt;div&gt;Watch&lt;/div&gt;Alert Rule" style="text;html=1;align=center;verticalAlign=middle;resizable=0;points=[];autosize=1;strokeColor=none;fillColor=none;" parent="1" vertex="1">
          <mxGeometry x="600" y="-5" width="80" height="40" as="geometry" />
        </mxCell>
        <mxCell id="gS8YIqSY_J7xMPx6njZp-21" value="Watch&lt;div&gt;Alert Config&lt;/div&gt;" style="text;html=1;align=center;verticalAlign=middle;resizable=0;points=[];autosize=1;strokeColor=none;fillColor=none;" parent="1" vertex="1">
          <mxGeometry x="324" y="-15" width="90" height="40" as="geometry" />
        </mxCell>
        <mxCell id="gS8YIqSY_J7xMPx6njZp-22" value="Send Alert Context" style="text;html=1;align=center;verticalAlign=middle;resizable=0;points=[];autosize=1;strokeColor=none;fillColor=none;" parent="1" vertex="1">
          <mxGeometry x="460" y="170" width="120" height="30" as="geometry" />
        </mxCell>
        <mxCell id="gS8YIqSY_J7xMPx6njZp-23" value="" style="shape=image;html=1;verticalAlign=top;verticalLabelPosition=bottom;labelBackgroundColor=#ffffff;imageAspect=0;aspect=fixed;image=https://cdn2.iconfinder.com/data/icons/social-media-2285/512/1_Slack_colored_svg-128.png" parent="1" vertex="1">
          <mxGeometry x="520" y="430" width="48" height="48" as="geometry" />
        </mxCell>
        <mxCell id="gS8YIqSY_J7xMPx6njZp-25" value="Send Alert" style="text;html=1;align=center;verticalAlign=middle;resizable=0;points=[];autosize=1;strokeColor=none;fillColor=none;" parent="1" vertex="1">
          <mxGeometry x="530" y="350" width="80" height="30" as="geometry" />
        </mxCell>
        <mxCell id="gS8YIqSY_J7xMPx6njZp-27" value="label&lt;div&gt;- key: value&lt;/div&gt;" style="text;html=1;align=left;verticalAlign=middle;resizable=0;points=[];autosize=1;strokeColor=none;fillColor=none;" parent="1" vertex="1">
          <mxGeometry x="530" y="140" width="80" height="40" as="geometry" />
        </mxCell>
        <mxCell id="gS8YIqSY_J7xMPx6njZp-28" value="Update at&lt;div&gt;/etc/alertmanager/config_out/alertmanager.env.yaml&lt;/div&gt;" style="text;html=1;align=left;verticalAlign=middle;resizable=0;points=[];autosize=1;strokeColor=none;fillColor=none;" parent="1" vertex="1">
          <mxGeometry x="270" y="85" width="300" height="40" as="geometry" />
        </mxCell>
        <mxCell id="gS8YIqSY_J7xMPx6njZp-29" value="&lt;div style=&quot;text-align: left;&quot;&gt;&lt;span style=&quot;background-color: initial;&quot;&gt;Update at&lt;/span&gt;&lt;/div&gt;&lt;div style=&quot;text-align: left;&quot;&gt;/etc/prometheus/rules/prometheus-prometheus-kube-prometheus-prometheus-rulefiles-0&lt;br&gt;&lt;/div&gt;" style="text;html=1;align=center;verticalAlign=middle;resizable=0;points=[];autosize=1;strokeColor=none;fillColor=none;" parent="1" vertex="1">
          <mxGeometry x="655" y="90" width="490" height="40" as="geometry" />
        </mxCell>
        <mxCell id="gS8YIqSY_J7xMPx6njZp-32" value="Alertmanager&lt;div&gt;Server&lt;/div&gt;" style="rounded=1;whiteSpace=wrap;html=1;" parent="1" vertex="1">
          <mxGeometry x="390" y="220" width="80" height="50" as="geometry" />
        </mxCell>
        <mxCell id="gS8YIqSY_J7xMPx6njZp-33" value="Config Reloader" style="rounded=1;whiteSpace=wrap;html=1;" parent="1" vertex="1">
          <mxGeometry x="290" y="220" width="80" height="50" as="geometry" />
        </mxCell>
        <mxCell id="gS8YIqSY_J7xMPx6njZp-34" value="EmptyDir&lt;div&gt;&lt;span style=&quot;text-wrap: nowrap;&quot;&gt;&amp;nbsp;/etc/alertmanager/config_out from config-out (rw)&lt;/span&gt;&lt;br&gt;&lt;/div&gt;" style="shape=cylinder3;whiteSpace=wrap;html=1;boundedLbl=1;backgroundOutline=1;size=15;" parent="1" vertex="1">
          <mxGeometry x="350" y="250" width="60" height="80" as="geometry" />
        </mxCell>
        <mxCell id="gS8YIqSY_J7xMPx6njZp-35" value="Secret&lt;div&gt;Volume&lt;/div&gt;&lt;div&gt;&lt;span style=&quot;background-color: initial;&quot;&gt;(&lt;/span&gt;&lt;span style=&quot;text-wrap: nowrap; background-color: initial;&quot;&gt;generated)&lt;/span&gt;&lt;/div&gt;" style="shape=cylinder3;whiteSpace=wrap;html=1;boundedLbl=1;backgroundOutline=1;size=15;" parent="1" vertex="1">
          <mxGeometry x="170" y="220" width="60" height="80" as="geometry" />
        </mxCell>
        <mxCell id="gS8YIqSY_J7xMPx6njZp-5" value="&lt;div&gt;Default&lt;/div&gt;alertmanager.yaml" style="rounded=0;whiteSpace=wrap;html=1;" parent="1" vertex="1">
          <mxGeometry x="90" y="310" width="140" height="100" as="geometry" />
        </mxCell>
        <mxCell id="gS8YIqSY_J7xMPx6njZp-26" value="matchers&lt;div&gt;- key: value&lt;/div&gt;" style="text;html=1;align=left;verticalAlign=middle;resizable=0;points=[];autosize=1;strokeColor=none;fillColor=none;" parent="1" vertex="1">
          <mxGeometry x="440" y="140" width="80" height="40" as="geometry" />
        </mxCell>
        <mxCell id="gS8YIqSY_J7xMPx6njZp-41" value="Create" style="text;html=1;align=center;verticalAlign=middle;resizable=0;points=[];autosize=1;strokeColor=none;fillColor=none;" parent="1" vertex="1">
          <mxGeometry x="160" y="130" width="60" height="30" as="geometry" />
        </mxCell>
        <mxCell id="gS8YIqSY_J7xMPx6njZp-42" value="&lt;div&gt;/etc/alertmanager/config from config-volume (ro)&lt;/div&gt;" style="text;html=1;align=center;verticalAlign=middle;resizable=0;points=[];autosize=1;strokeColor=none;fillColor=none;" parent="1" vertex="1">
          <mxGeometry x="140" y="170" width="280" height="30" as="geometry" />
        </mxCell>
        <mxCell id="Sy2hENMCRLGoZXecPlhb-1" value="Config Reloader" style="rounded=1;whiteSpace=wrap;html=1;" parent="1" vertex="1">
          <mxGeometry x="570" y="210" width="80" height="50" as="geometry" />
        </mxCell>
        <mxCell id="Sy2hENMCRLGoZXecPlhb-2" value="Prometheus&lt;div&gt;Server&lt;/div&gt;" style="rounded=1;whiteSpace=wrap;html=1;" parent="1" vertex="1">
          <mxGeometry x="680" y="210" width="80" height="50" as="geometry" />
        </mxCell>
        <mxCell id="Sy2hENMCRLGoZXecPlhb-4" value="&lt;font style=&quot;font-size: 12px;&quot;&gt;EmptyDir&lt;/font&gt;&lt;div&gt;&lt;span style=&quot;color: rgb(31, 35, 40); font-family: -apple-system, &amp;quot;system-ui&amp;quot;, &amp;quot;Segoe UI&amp;quot;, &amp;quot;Noto Sans&amp;quot;, Helvetica, Arial, sans-serif, &amp;quot;Apple Color Emoji&amp;quot;, &amp;quot;Segoe UI Emoji&amp;quot;; text-align: left; background-color: rgb(255, 255, 255);&quot;&gt;&lt;font style=&quot;font-size: 12px;&quot;&gt;/etc/prometheus/config_out/prometheus.env.yaml&lt;/font&gt;&lt;/span&gt;&lt;/div&gt;" style="shape=cylinder3;whiteSpace=wrap;html=1;boundedLbl=1;backgroundOutline=1;size=15;" parent="1" vertex="1">
          <mxGeometry x="630" y="230" width="60" height="80" as="geometry" />
        </mxCell>
        <mxCell id="Sy2hENMCRLGoZXecPlhb-5" value="Secret&lt;div&gt;Volume&lt;/div&gt;" style="shape=cylinder3;whiteSpace=wrap;html=1;boundedLbl=1;backgroundOutline=1;size=15;" parent="1" vertex="1">
          <mxGeometry x="870" y="220" width="60" height="80" as="geometry" />
        </mxCell>
        <mxCell id="Sy2hENMCRLGoZXecPlhb-6" style="edgeStyle=orthogonalEdgeStyle;rounded=0;orthogonalLoop=1;jettySize=auto;html=1;" parent="1" source="Sy2hENMCRLGoZXecPlhb-8" target="Sy2hENMCRLGoZXecPlhb-5" edge="1">
          <mxGeometry relative="1" as="geometry" />
        </mxCell>
        <mxCell id="Sy2hENMCRLGoZXecPlhb-7" style="edgeStyle=orthogonalEdgeStyle;rounded=0;orthogonalLoop=1;jettySize=auto;html=1;" parent="1" source="Sy2hENMCRLGoZXecPlhb-8" target="Sy2hENMCRLGoZXecPlhb-9" edge="1">
          <mxGeometry relative="1" as="geometry" />
        </mxCell>
        <mxCell id="Sy2hENMCRLGoZXecPlhb-8" value="Helm Values" style="rounded=1;whiteSpace=wrap;html=1;" parent="1" vertex="1">
          <mxGeometry x="890" y="40" width="120" height="60" as="geometry" />
        </mxCell>
        <mxCell id="Sy2hENMCRLGoZXecPlhb-9" value="Secret&lt;div&gt;Volume&lt;/div&gt;&lt;div&gt;&lt;span style=&quot;background-color: initial;&quot;&gt;(&lt;/span&gt;&lt;span style=&quot;text-wrap: nowrap; background-color: initial;&quot;&gt;generated)&lt;/span&gt;&lt;/div&gt;" style="shape=cylinder3;whiteSpace=wrap;html=1;boundedLbl=1;backgroundOutline=1;size=15;" parent="1" vertex="1">
          <mxGeometry x="960" y="220" width="60" height="80" as="geometry" />
        </mxCell>
        <mxCell id="Sy2hENMCRLGoZXecPlhb-10" value="&lt;div&gt;Default&lt;/div&gt;prometheus.yaml" style="rounded=0;whiteSpace=wrap;html=1;" parent="1" vertex="1">
          <mxGeometry x="880" y="310" width="140" height="100" as="geometry" />
        </mxCell>
        <mxCell id="Sy2hENMCRLGoZXecPlhb-11" value="Create" style="text;html=1;align=center;verticalAlign=middle;resizable=0;points=[];autosize=1;strokeColor=none;fillColor=none;" parent="1" vertex="1">
          <mxGeometry x="950" y="130" width="60" height="30" as="geometry" />
        </mxCell>
      </root>
    </mxGraphModel>
  </diagram>
  <diagram id="xoopgFap4zwOX7No_BLC" name="Alertmanager">
    <mxGraphModel dx="795" dy="1533" grid="1" gridSize="10" guides="1" tooltips="1" connect="1" arrows="1" fold="1" page="1" pageScale="1" pageWidth="850" pageHeight="1100" math="0" shadow="0">
      <root>
        <mxCell id="0" />
        <mxCell id="1" parent="0" />
        <mxCell id="P-bCbfepLtGHkHCjRY2Y-1" value="AlertmanagerConfig" style="rounded=0;whiteSpace=wrap;html=1;" vertex="1" parent="1">
          <mxGeometry x="200" y="80" width="120" height="60" as="geometry" />
        </mxCell>
        <mxCell id="ABv5iIzW0BFB5_YG5_i1-2" style="edgeStyle=orthogonalEdgeStyle;rounded=0;orthogonalLoop=1;jettySize=auto;html=1;" edge="1" parent="1" source="qiCw9OH5trEnS-vTR3OG-1" target="P-bCbfepLtGHkHCjRY2Y-1">
          <mxGeometry relative="1" as="geometry" />
        </mxCell>
        <mxCell id="ABv5iIzW0BFB5_YG5_i1-3" style="edgeStyle=orthogonalEdgeStyle;rounded=0;orthogonalLoop=1;jettySize=auto;html=1;" edge="1" parent="1" source="qiCw9OH5trEnS-vTR3OG-1" target="ABv5iIzW0BFB5_YG5_i1-1">
          <mxGeometry relative="1" as="geometry" />
        </mxCell>
        <mxCell id="qiCw9OH5trEnS-vTR3OG-1" value="Prometheus&lt;div&gt;Operator&lt;/div&gt;" style="shape=process;whiteSpace=wrap;html=1;backgroundOutline=1;" vertex="1" parent="1">
          <mxGeometry x="390" y="-30" width="120" height="60" as="geometry" />
        </mxCell>
        <mxCell id="ABv5iIzW0BFB5_YG5_i1-1" value="Alertmanager" style="shape=process;whiteSpace=wrap;html=1;backgroundOutline=1;" vertex="1" parent="1">
          <mxGeometry x="390" y="80" width="120" height="60" as="geometry" />
        </mxCell>
        <mxCell id="ABv5iIzW0BFB5_YG5_i1-4" value="1. Watch" style="text;html=1;align=center;verticalAlign=middle;resizable=0;points=[];autosize=1;strokeColor=none;fillColor=none;" vertex="1" parent="1">
          <mxGeometry x="250" y="-30" width="70" height="30" as="geometry" />
        </mxCell>
        <mxCell id="ABv5iIzW0BFB5_YG5_i1-5" value="2. Update at&lt;div&gt;&lt;span style=&quot;&quot;&gt;/etc/alertmanager/config_out/alertmanager.env.yaml&lt;/span&gt;&lt;/div&gt;" style="text;html=1;align=left;verticalAlign=middle;resizable=0;points=[];autosize=1;strokeColor=none;fillColor=none;" vertex="1" parent="1">
          <mxGeometry x="460" y="30" width="300" height="40" as="geometry" />
        </mxCell>
        <mxCell id="DnRpoO-GAsHnInqONnnn-2" style="edgeStyle=orthogonalEdgeStyle;rounded=0;orthogonalLoop=1;jettySize=auto;html=1;startArrow=classic;startFill=1;" edge="1" parent="1" source="Xyu1mQVtb5oKosG9DAKy-1" target="DnRpoO-GAsHnInqONnnn-1">
          <mxGeometry relative="1" as="geometry" />
        </mxCell>
        <mxCell id="Xyu1mQVtb5oKosG9DAKy-1" value="Alertmanager&lt;div&gt;Server&lt;/div&gt;" style="rounded=1;whiteSpace=wrap;html=1;" vertex="1" parent="1">
          <mxGeometry x="460" y="130" width="80" height="50" as="geometry" />
        </mxCell>
        <mxCell id="Xyu1mQVtb5oKosG9DAKy-2" value="Config Reloader" style="rounded=1;whiteSpace=wrap;html=1;" vertex="1" parent="1">
          <mxGeometry x="360" y="130" width="80" height="50" as="geometry" />
        </mxCell>
        <mxCell id="Xyu1mQVtb5oKosG9DAKy-3" value="&lt;div style=&quot;&quot;&gt;&lt;span style=&quot;background-color: initial;&quot;&gt;EmptyDir&lt;/span&gt;&lt;/div&gt;" style="shape=cylinder3;whiteSpace=wrap;html=1;boundedLbl=1;backgroundOutline=1;size=15;" vertex="1" parent="1">
          <mxGeometry x="420" y="160" width="60" height="80" as="geometry" />
        </mxCell>
        <mxCell id="Xyu1mQVtb5oKosG9DAKy-4" value="&amp;nbsp;/etc/alertmanager/config_out from config-out (rw)" style="text;html=1;align=center;verticalAlign=middle;resizable=0;points=[];autosize=1;strokeColor=none;fillColor=none;" vertex="1" parent="1">
          <mxGeometry x="305" y="240" width="290" height="30" as="geometry" />
        </mxCell>
        <mxCell id="DnRpoO-GAsHnInqONnnn-1" value="Secret&lt;div&gt;Volume&lt;/div&gt;" style="shape=cylinder3;whiteSpace=wrap;html=1;boundedLbl=1;backgroundOutline=1;size=15;" vertex="1" parent="1">
          <mxGeometry x="610" y="115" width="60" height="80" as="geometry" />
        </mxCell>
        <mxCell id="DnRpoO-GAsHnInqONnnn-3" value="Mount" style="text;html=1;align=center;verticalAlign=middle;resizable=0;points=[];autosize=1;strokeColor=none;fillColor=none;" vertex="1" parent="1">
          <mxGeometry x="544" y="130" width="60" height="30" as="geometry" />
        </mxCell>
        <mxCell id="j2p6RyJOeBbjaTue_J8N-1" value="&lt;div&gt;/etc/alertmanager/config from config-volume (ro)&lt;/div&gt;" style="text;html=1;align=center;verticalAlign=middle;resizable=0;points=[];autosize=1;strokeColor=none;fillColor=none;" vertex="1" parent="1">
          <mxGeometry x="510" y="190" width="280" height="30" as="geometry" />
        </mxCell>
        <mxCell id="fZmXEQOYArc7XWfug8S8-4" style="edgeStyle=orthogonalEdgeStyle;rounded=0;orthogonalLoop=1;jettySize=auto;html=1;" edge="1" parent="1" source="fZmXEQOYArc7XWfug8S8-1" target="DnRpoO-GAsHnInqONnnn-1">
          <mxGeometry relative="1" as="geometry" />
        </mxCell>
        <mxCell id="fZmXEQOYArc7XWfug8S8-1" value="Helm" style="rounded=1;whiteSpace=wrap;html=1;" vertex="1" parent="1">
          <mxGeometry x="820" y="135" width="90" height="40" as="geometry" />
        </mxCell>
        <mxCell id="fZmXEQOYArc7XWfug8S8-3" value="Create&amp;nbsp;&lt;div&gt;default&amp;nbsp;&lt;span style=&quot;text-wrap-mode: wrap;&quot;&gt;alertmanager.yaml&lt;/span&gt;&amp;nbsp;&lt;div&gt;base on values.yaml&lt;/div&gt;&lt;/div&gt;" style="text;html=1;align=center;verticalAlign=middle;resizable=0;points=[];autosize=1;strokeColor=none;fillColor=none;" vertex="1" parent="1">
          <mxGeometry x="670" y="100" width="160" height="60" as="geometry" />
        </mxCell>
      </root>
    </mxGraphModel>
  </diagram>
  <diagram id="jls6bmM84CAP_VDsyYto" name="Sending Alerm">
    <mxGraphModel dx="681" dy="371" grid="1" gridSize="10" guides="1" tooltips="1" connect="1" arrows="1" fold="1" page="1" pageScale="1" pageWidth="850" pageHeight="1100" math="0" shadow="0">
      <root>
        <mxCell id="0" />
        <mxCell id="1" parent="0" />
        <mxCell id="57vYUYbNsG1p7w0_gWyc-5" style="edgeStyle=orthogonalEdgeStyle;rounded=0;orthogonalLoop=1;jettySize=auto;html=1;entryX=0.5;entryY=0;entryDx=0;entryDy=0;startArrow=classic;startFill=1;" edge="1" parent="1" source="3yCYqpEDqa0DHnXyoei9-1" target="57vYUYbNsG1p7w0_gWyc-4">
          <mxGeometry relative="1" as="geometry" />
        </mxCell>
        <mxCell id="sithjZ6sJUQuwXukoUR5-9" style="edgeStyle=orthogonalEdgeStyle;rounded=0;orthogonalLoop=1;jettySize=auto;html=1;" edge="1" parent="1" target="sithjZ6sJUQuwXukoUR5-1">
          <mxGeometry relative="1" as="geometry">
            <mxPoint x="665" y="155" as="sourcePoint" />
            <mxPoint x="735" y="100" as="targetPoint" />
            <Array as="points">
              <mxPoint x="715" y="155" />
              <mxPoint x="715" y="100" />
            </Array>
          </mxGeometry>
        </mxCell>
        <mxCell id="sithjZ6sJUQuwXukoUR5-10" style="edgeStyle=orthogonalEdgeStyle;rounded=0;orthogonalLoop=1;jettySize=auto;html=1;" edge="1" parent="1" target="sithjZ6sJUQuwXukoUR5-3">
          <mxGeometry relative="1" as="geometry">
            <mxPoint x="665" y="155" as="sourcePoint" />
            <Array as="points">
              <mxPoint x="735" y="155" />
              <mxPoint x="735" y="155" />
            </Array>
          </mxGeometry>
        </mxCell>
        <mxCell id="sithjZ6sJUQuwXukoUR5-11" style="edgeStyle=orthogonalEdgeStyle;rounded=0;orthogonalLoop=1;jettySize=auto;html=1;exitX=1;exitY=0.5;exitDx=0;exitDy=0;" edge="1" parent="1" source="3yCYqpEDqa0DHnXyoei9-1" target="sithjZ6sJUQuwXukoUR5-4">
          <mxGeometry relative="1" as="geometry">
            <mxPoint x="650" y="155" as="sourcePoint" />
            <Array as="points">
              <mxPoint x="715" y="155" />
              <mxPoint x="715" y="220" />
            </Array>
          </mxGeometry>
        </mxCell>
        <mxCell id="3yCYqpEDqa0DHnXyoei9-1" value="Alertmanager&lt;div&gt;Server&lt;/div&gt;" style="rounded=1;whiteSpace=wrap;html=1;" vertex="1" parent="1">
          <mxGeometry x="560" y="130" width="80" height="50" as="geometry" />
        </mxCell>
        <mxCell id="57vYUYbNsG1p7w0_gWyc-2" style="edgeStyle=orthogonalEdgeStyle;rounded=0;orthogonalLoop=1;jettySize=auto;html=1;" edge="1" parent="1" source="3yCYqpEDqa0DHnXyoei9-2" target="3yCYqpEDqa0DHnXyoei9-1">
          <mxGeometry relative="1" as="geometry" />
        </mxCell>
        <mxCell id="3yCYqpEDqa0DHnXyoei9-2" value="Prometheus&lt;div&gt;Server&lt;/div&gt;" style="rounded=1;whiteSpace=wrap;html=1;" vertex="1" parent="1">
          <mxGeometry x="390" y="130" width="80" height="50" as="geometry" />
        </mxCell>
        <mxCell id="57vYUYbNsG1p7w0_gWyc-3" value="Send&lt;div&gt;Alert Conext&lt;div&gt;include labels&lt;/div&gt;&lt;/div&gt;" style="text;html=1;align=center;verticalAlign=middle;resizable=0;points=[];autosize=1;strokeColor=none;fillColor=none;" vertex="1" parent="1">
          <mxGeometry x="460" y="100" width="100" height="60" as="geometry" />
        </mxCell>
        <mxCell id="57vYUYbNsG1p7w0_gWyc-4" value="&lt;div&gt;Select Receiver&lt;/div&gt;&lt;div&gt;based on&amp;nbsp;&lt;/div&gt;route.matchers" style="shape=parallelogram;perimeter=parallelogramPerimeter;whiteSpace=wrap;html=1;fixedSize=1;" vertex="1" parent="1">
          <mxGeometry x="537.5" y="220" width="125" height="60" as="geometry" />
        </mxCell>
        <mxCell id="sithjZ6sJUQuwXukoUR5-1" value="" style="shape=image;html=1;verticalAlign=top;verticalLabelPosition=bottom;labelBackgroundColor=#ffffff;imageAspect=0;aspect=fixed;image=https://cdn2.iconfinder.com/data/icons/social-media-2285/512/1_Slack_colored_svg-128.png" vertex="1" parent="1">
          <mxGeometry x="753.5" y="77" width="38" height="38" as="geometry" />
        </mxCell>
        <mxCell id="sithjZ6sJUQuwXukoUR5-3" value="" style="sketch=0;outlineConnect=0;fontColor=#232F3E;gradientColor=none;fillColor=#232F3D;strokeColor=none;dashed=0;verticalLabelPosition=bottom;verticalAlign=top;align=center;html=1;fontSize=12;fontStyle=0;aspect=fixed;pointerEvents=1;shape=mxgraph.aws4.email_2;" vertex="1" parent="1">
          <mxGeometry x="752" y="145" width="45.5" height="28.59" as="geometry" />
        </mxCell>
        <mxCell id="sithjZ6sJUQuwXukoUR5-4" value="" style="sketch=0;pointerEvents=1;shadow=0;dashed=0;html=1;strokeColor=#3700CC;fillColor=#6a00ff;labelPosition=center;verticalLabelPosition=bottom;verticalAlign=top;align=center;outlineConnect=0;shape=mxgraph.veeam2.microsoft_teams;fontColor=#ffffff;" vertex="1" parent="1">
          <mxGeometry x="757.75" y="200" width="34" height="34" as="geometry" />
        </mxCell>
        <mxCell id="sithjZ6sJUQuwXukoUR5-5" value="Slack" style="text;html=1;align=center;verticalAlign=middle;resizable=0;points=[];autosize=1;strokeColor=none;fillColor=none;" vertex="1" parent="1">
          <mxGeometry x="746.5" y="107" width="50" height="30" as="geometry" />
        </mxCell>
        <mxCell id="sithjZ6sJUQuwXukoUR5-7" value="Email" style="text;html=1;align=center;verticalAlign=middle;resizable=0;points=[];autosize=1;strokeColor=none;fillColor=none;" vertex="1" parent="1">
          <mxGeometry x="748.5" y="166" width="50" height="30" as="geometry" />
        </mxCell>
        <mxCell id="sithjZ6sJUQuwXukoUR5-8" value="Teams" style="text;html=1;align=center;verticalAlign=middle;resizable=0;points=[];autosize=1;strokeColor=none;fillColor=none;" vertex="1" parent="1">
          <mxGeometry x="743.75" y="228" width="60" height="30" as="geometry" />
        </mxCell>
        <mxCell id="sithjZ6sJUQuwXukoUR5-12" value="Send Alarm" style="text;html=1;align=center;verticalAlign=middle;resizable=0;points=[];autosize=1;strokeColor=none;fillColor=none;" vertex="1" parent="1">
          <mxGeometry x="630" y="130" width="90" height="30" as="geometry" />
        </mxCell>
      </root>
    </mxGraphModel>
  </diagram>
</mxfile>
